<svg xmlns="http://www.w3.org/2000/svg" id="Layer_1" data-name="Layer 1" viewBox="0 0 1440 1440"><defs><style>.cls-1{fill:#57686f}.cls-2{fill:#57676e}.cls-3{fill:#4e4f4f}</style></defs><title>_01_origional logo</title><path d="M602.5,700.426c.492,5.443.833,10.934.833,16.507h0C603.338,711.359,603,705.869,602.5,700.426Z" class="cls-1"/><path d="M335.787,699.474s-49.993,184.21,150.394,185.814c62.874-23.407,109.2-80.788,116.227-149.97.486-4.786.63-9.665.737-14.555.021-1.288.192-2.536.192-3.831,0-5.573-.342-11.064-.833-16.507C549.563,908.838,315.356,827.2,335.787,699.474Z" class="cls-2"/><path d="M439.405,631.1s-186.56-52.1-183.707,151.339a180.291,180.291,0,0,0,43.48,64.991c.791.759,1.63,1.476,2.442,2.221a180.415,180.415,0,0,0,17.049,13.9c.924.661,1.8,1.392,2.725,2.036a179.042,179.042,0,0,0,19.683,11.686c1.977,1.018,4,1.949,6.016,2.9a177.906,177.906,0,0,0,17.973,7.3c1.5.514,2.939,1.155,4.461,1.631a178.214,178.214,0,0,0,22.37,5.3c2.287.406,4.6.739,6.919,1.057a180.342,180.342,0,0,0,23.69,1.839c.3,0,.6.047.9.047,5.979-.008,11.882-.319,17.706-.895C231.773,846.508,311.36,612.422,439.405,631.1Z" class="cls-2"/><path d="M512.126,727.576S556.268,541.481,357.575,549.8A177.934,177.934,0,0,0,245.627,741.377C287.445,530.823,525.675,599,512.126,727.576Z" class="cls-2"/><path d="M416.725,807.659s186.9,24.4,175.2-153.3c-25.437-68.4-91.116-117.221-168.373-117.221a180.442,180.442,0,0,0-32.6,3.1C599.213,565.8,545.086,809.479,416.725,807.659Z" class="cls-2"/><path d="M475.441,716.936a50.358,50.358,0,1,1-50.34-50.358A50.354,50.354,0,0,1,475.441,716.936Z" class="cls-3"/><rect width="19.528" height="19.528" x="1036.91" y="735.212" class="cls-3"/><rect width="19.493" height="19.527" x="1057.77" y="756.037" class="cls-3"/><rect width="19.528" height="19.528" x="1036.91" y="776.862" class="cls-3"/><path d="M718.1,677.776v17.2h-2.064q-18.579,0-30.276,14.908-11.01,14.225-11.009,33.946v50.46h-17.2V679.611h17.2v28.212q5.5-17.892,23.854-26.377,7.569-3.667,18.349-3.67Z" class="cls-3"/><path d="M784.841,780.531q23.164,0,33.258-19.267h18.808a55.361,55.361,0,0,1-18.922,25.229q-12.961,9.634-33.373,9.634-25.922,0-42.2-17.2-15.826-16.74-15.825-41.974,0-25.459,15.138-41.974,16.052-17.2,41.744-17.2t41.744,17.2q15.138,16.515,15.138,41.974v6.881h-96.1q1.834,15.826,12.615,26.147Q767.868,780.533,784.841,780.531Zm-1.376-87.158q-15.826,0-26.606,9.862-10.1,9.407-12.386,24.542h77.984q-2.3-15.138-12.386-24.542Q799.287,693.377,783.465,693.373Z" class="cls-3"/><path d="M878.649,697.96q13.761-20.18,41.056-20.184,24.772,0,40.139,17.2,15.363,16.976,15.367,41.974t-15.367,41.974q-15.369,17.2-41.285,17.2t-39.909-20.413v63.992h-17.2v-160.1h17.2Zm38.762-4.587q-18.579,0-29.358,12.845-10.321,12.16-10.321,30.734t10.321,30.734q10.778,12.848,29.358,12.845,18.347,0,29.817-12.845,10.778-12.154,10.78-30.734t-10.78-30.734Q935.757,693.374,917.411,693.373Z" class="cls-3"/><path d="M1014.89,794.293h-17.2V633.738h17.2Z" class="cls-3"/><path d="M1111.448,637.867v22.478H1092.87V637.867Zm-17.891,41.744h17.2V794.293h-17.2Z" class="cls-3"/><path d="M1152.96,794.293V694.749h-23.395V679.611h23.395V638.555h17.2v41.057h26.377v15.138h-26.377v99.544Z" class="cls-3"/></svg>